#tb 0: 1/25
#media_type 0: video
#codec_id 0: rawvideo
#dimensions 0: 320x240
#sar 0: 0/1
0,          0,          0,        1,   230400, 0x0b712fba
0,          1,          1,        1,   230400, 0x30252ac7
0,          2,          2,        1,   230400, 0x6d98a787
0,          3,          3,        1,   230400, 0x5d1f6ce7
0,          4,          4,        1,   230400, 0xccb79136
0,          5,          5,        1,   230400, 0x394093e1
0,          6,          6,        1,   230400, 0x3e76c5e9
0,          7,          7,        1,   230400, 0xd6cdc8f1
0,          8,          8,        1,   230400, 0xd355371d
0,          9,          9,        1,   230400, 0x2c1519ca
0,         10,         10,        1,   230400, 0xd82427e1
0,         11,         11,        1,   230400, 0x4202e3b4
0,         12,         12,        1,   230400, 0x27c15cda
0,         13,         13,        1,   230400, 0x3fd7d5db
0,         14,         14,        1,   230400, 0x03838791
0,         15,         15,        1,   230400, 0x8253d774
0,         16,         16,        1,   230400, 0x833e9c9f
0,         17,         17,        1,   230400, 0xe30aba05
0,         18,         18,        1,   230400, 0x81056b68
0,         19,         19,        1,   230400, 0xe6454d37
0,         20,         20,        1,   230400, 0x6bb65f77
0,         21,         21,        1,   230400, 0x95b652eb
0,         22,         22,        1,   230400, 0x4f585a73
0,         23,         23,        1,   230400, 0x9bc2c9d8
0,         24,         24,        1,   230400, 0x09f00930
0,         25,         25,        1,   230400, 0x6be9d11a
0,         26,         26,        1,   230400, 0x5cdd4ea5
0,         27,         27,        1,   230400, 0x77508d67
0,         28,         28,        1,   230400, 0x76b21fdd
0,         29,         29,        1,   230400, 0x39e2dddb
0,         30,         30,        1,   230400, 0x8b16d389
0,         31,         31,        1,   230400, 0xb2b329fb
0,         32,         32,        1,   230400, 0x8e998c17
0,         33,         33,        1,   230400, 0x3852049f
0,         34,         34,        1,   230400, 0x5a7f6302
0,         35,         35,        1,   230400, 0xdd7d9d86
0,         36,         36,        1,   230400, 0x337298bd
0,         37,         37,        1,   230400, 0x2fa38668
0,         38,         38,        1,   230400, 0xfc42afcd
0,         39,         39,        1,   230400, 0x20ff7b1d
0,         40,         40,        1,   230400, 0xa9190f28
0,         41,         41,        1,   230400, 0x2ca26827
0,         42,         42,        1,   230400, 0x1106bd55
0,         43,         43,        1,   230400, 0xb965748e
0,         44,         44,        1,   230400, 0x2c2d2691
0,         45,         45,        1,   230400, 0x8096db4d
0,         46,         46,        1,   230400, 0x7b223871
0,         47,         47,        1,   230400, 0xf9edbca9
0,         48,         48,        1,   230400, 0x0e607f74
0,         49,         49,        1,   230400, 0x3e64ed79
0,         50,         50,        1,   230400, 0x2198f77a
0,         51,         51,        1,   230400, 0x3cf4925a
0,         52,         52,        1,   230400, 0x2de0ebdb
0,         53,         53,        1,   230400, 0x5104c55f
0,         54,         54,        1,   230400, 0xebd7f8f7
0,         55,         55,        1,   230400, 0xfce8a2ae
0,         56,         56,        1,   230400, 0xeb073121
0,         57,         57,        1,   230400, 0x8f2ed47d
0,         58,         58,        1,   230400, 0xdcb72934
0,         59,         59,        1,   230400, 0xf69e75a1
0,         60,         60,        1,   230400, 0xc45ab599
0,         61,         61,        1,   230400, 0x0d218766
0,         62,         62,        1,   230400, 0x4a6aafce
0,         63,         63,        1,   230400, 0x642153ca
0,         64,         64,        1,   230400, 0x8bd7a2a4
0,         65,         65,        1,   230400, 0x04abeeed
0,         66,         66,        1,   230400, 0x37bf9f2c
0,         67,         67,        1,   230400, 0x1d966ae5
0,         68,         68,        1,   230400, 0x3a2ef337
0,         69,         69,        1,   230400, 0x9edaf34f
0,         70,         70,        1,   230400, 0x7f3c0ff8
0,         71,         71,        1,   230400, 0x403cbdee
0,         72,         72,        1,   230400, 0x86b340e8
0,         73,         73,        1,   230400, 0x5a57c916
0,         74,         74,        1,   230400, 0x35763ab3
0,         75,         75,        1,   230400, 0xd135a1ba
0,         76,         76,        1,   230400, 0x56a7b1db
0,         77,         77,        1,   230400, 0x6e8d2910
0,         78,         78,        1,   230400, 0xc8d9c4e1
0,         79,         79,        1,   230400, 0xb61fd11f
0,         80,         80,        1,   230400, 0x8949b165
0,         81,         81,        1,   230400, 0x60082f69
0,         82,         82,        1,   230400, 0xf9c74a14
0,         83,         83,        1,   230400, 0x1f0af3f4
0,         84,         84,        1,   230400, 0x1abe4a3b
0,         85,         85,        1,   230400, 0xdf762ffb
0,         86,         86,        1,   230400, 0x38513b73
0,         87,         87,        1,   230400, 0xf3b01fcf
0,         88,         88,        1,   230400, 0xea7d486c
0,         89,         89,        1,   230400, 0xfabc7a89
0,         90,         90,        1,   230400, 0xc72f6977
0,         91,         91,        1,   230400, 0x1c9e4590
0,         92,         92,        1,   230400, 0x51abf71e
0,         93,         93,        1,   230400, 0x39c9d819
0,         94,         94,        1,   230400, 0xfc62d8e0
0,         95,         95,        1,   230400, 0x40bb8c0d
0,         96,         96,        1,   230400, 0xa0bd86d2
0,         97,         97,        1,   230400, 0x610dfe19
0,         98,         98,        1,   230400, 0x997e1572
0,         99,         99,        1,   230400, 0x49919319
